HIERARCHY
ROOT Hips
{
	OFFSET 0.000000 0.000000 0.000000
	CHANNELS 6 Xposition Yposition Zposition Xrotation Yrotation Zrotation
	JOINT LeftUpLeg_virtual
	{
		OFFSET 0.000000 0.000000 0.000000
		CHANNELS 3 Xrotation Yrotation Zrotation
		JOINT LeftUpLeg
		{
			OFFSET 11.394100 -6.187798 -0.413800
			CHANNELS 3 Xrotation Yrotation Zrotation
			JOINT LeftLeg
			{
				OFFSET 0.430247 -32.302673 3.732800
				CHANNELS 3 Xrotation Yrotation Zrotation
				JOINT LeftFoot
				{
					OFFSET -0.430247 -48.264931 -6.423300
					CHANNELS 3 Xrotation Yrotation Zrotation
					JOINT LeftToeBase
					{
						OFFSET 4.230900 -16.068199 23.438400
						CHANNELS 3 Xrotation Yrotation Zrotation
						JOINT LeftToe_End
						{
							OFFSET 4.510700 0.695400 19.974600
							CHANNELS 3 Xrotation Yrotation Zrotation
							End Site
							{
								OFFSET 0 0 0
							}
						}
					}
				}
			}
		}
	}
	JOINT RightUpLeg_virtual
	{
		OFFSET 0.000000 0.000000 0.000000
		CHANNELS 3 Xrotation Yrotation Zrotation
		JOINT RightUpLeg
		{
			OFFSET -11.333700 -6.187798 -0.413800
			CHANNELS 3 Xrotation Yrotation Zrotation
			JOINT RightLeg
			{
				OFFSET -0.430392 -32.302628 3.733000
				CHANNELS 3 Xrotation Yrotation Zrotation
				JOINT RightFoot
				{
					OFFSET 0.430392 -48.264973 -6.423500
					CHANNELS 3 Xrotation Yrotation Zrotation
					JOINT RightToeBase
					{
						OFFSET -4.230900 -16.068199 23.438400
						CHANNELS 3 Xrotation Yrotation Zrotation
						JOINT RightToe_End
						{
							OFFSET -4.510700 0.695400 19.974600
							CHANNELS 3 Xrotation Yrotation Zrotation
							End Site
							{
								OFFSET 0 0 0
							}
						}
					}
				}
			}
		}
	}
	JOINT Spine_virtual
	{
		OFFSET 0.000000 0.000000 0.000000
		CHANNELS 3 Xrotation Yrotation Zrotation
		JOINT Spine
		{
			OFFSET -0.002400 12.777504 0.315300
			CHANNELS 3 Xrotation Yrotation Zrotation
			JOINT Spine1
			{
				OFFSET -0.002067 5.816869 0.032633
				CHANNELS 3 Xrotation Yrotation Zrotation
				JOINT Spine1_split
				{
					OFFSET -0.002067 5.816869 0.032633
					CHANNELS 3 Xrotation Yrotation Zrotation
					JOINT Spine2
					{
						OFFSET -0.002067 5.816869 0.032633
						CHANNELS 3 Xrotation Yrotation Zrotation
						JOINT Neck_virtual
						{
							OFFSET 0.000000 0.000000 0.000000
							CHANNELS 3 Xrotation Yrotation Zrotation
							JOINT Neck
							{
								OFFSET -0.003700 21.199493 -0.826900
								CHANNELS 3 Xrotation Yrotation Zrotation
								JOINT Head
								{
									OFFSET 0.000000 20.442200 4.834800
									CHANNELS 3 Xrotation Yrotation Zrotation
									JOINT HeadTop_End
									{
										OFFSET 0.000000 34.668396 4.968400
										CHANNELS 3 Xrotation Yrotation Zrotation
										End Site
										{
											OFFSET 0 0 0
										}
									}
								}
							}
						}
						JOINT LeftShoulder_virtual
						{
							OFFSET 0.000000 0.000000 0.000000
							CHANNELS 3 Xrotation Yrotation Zrotation
							JOINT LeftShoulder
							{
								OFFSET 3.288150 8.794197 -1.372250
								CHANNELS 3 Xrotation Yrotation Zrotation
								JOINT LeftShoulder_split
								{
									OFFSET 3.288150 8.794197 -1.372250
									CHANNELS 3 Xrotation Yrotation Zrotation
									JOINT LeftArm
									{
										OFFSET 11.953299 -2.279007 -0.146200
										CHANNELS 3 Xrotation Yrotation Zrotation
										JOINT LeftForeArm
										{
											OFFSET 18.448900 0.000000 0.000000
											CHANNELS 3 Xrotation Yrotation Zrotation
											JOINT LeftHand
											{
												OFFSET 29.527798 0.000000 0.000000
												CHANNELS 3 Xrotation Yrotation Zrotation
												End Site
												{
													OFFSET 0 0 0
												}
											}
										}
									}
								}
							}
						}
						JOINT RightShoulder_virtual
						{
							OFFSET 0.000000 0.000000 0.000000
							CHANNELS 3 Xrotation Yrotation Zrotation
							JOINT RightShoulder
							{
								OFFSET -3.249400 8.794197 -1.372250
								CHANNELS 3 Xrotation Yrotation Zrotation
								JOINT RightShoulder_split
								{
									OFFSET -3.249400 8.794197 -1.372250
									CHANNELS 3 Xrotation Yrotation Zrotation
									JOINT RightArm
									{
										OFFSET -11.953299 -2.279007 -0.146200
										CHANNELS 3 Xrotation Yrotation Zrotation
										JOINT RightForeArm
										{
											OFFSET -18.448900 0.000000 0.000000
											CHANNELS 3 Xrotation Yrotation Zrotation
											JOINT RightHand
											{
												OFFSET -29.527802 0.000000 0.000000
												CHANNELS 3 Xrotation Yrotation Zrotation
												End Site
												{
													OFFSET 0 0 0
												}
											}
										}
									}
								}
							}
						}
					}
				}
			}
		}
	}
}
MOTION
Frames: 8
Frame Time: 0.03333333
193.769241 44.925831 -37.146275 0.000000 0.000000 0.000000 -124.057573 -16.006707 56.769486 -74.644685 11.178856 1.688611 105.427808 -8.688793 0.079586 0.884992 5.587673 -1.534126 13.318725 -0.300071 2.967698 0.000000 0.000000 0.000000 -124.985413 -20.529370 53.836313 -95.910411 8.551098 16.030171 60.641186 0.193452 0.146226 4.431605 6.279228 2.898434 -18.151530 0.086187 0.540457 0.000000 0.000000 0.000000 -133.682184 -18.919885 66.991814 10.228945 6.809165 3.989095 23.330111 5.533374 1.823288 -1.120268 2.069586 2.091930 0.000000 0.000000 0.000000 20.134979 5.469824 1.004882 52.777654 -4.316523 -10.438858 -23.404014 -14.261959 11.993189 0.000000 0.000000 0.000000 22.268858 6.784232 1.971034 2.857507 0.689454 5.106183 8.338907 -6.942502 0.632892 -35.455813 -18.904203 -5.259514 175.728869 -43.156093 178.219375 0.000000 0.000000 0.000000 18.530177 5.545633 2.937847 -1.635169 -4.486661 -2.074916 11.067907 -4.737409 6.925201 -76.611008 3.182674 46.914428 -164.290488 62.359347 158.946671 0.000000 0.000000 0.000000 
200.905960 38.850159 -38.062611 0.000000 0.000000 0.000000 -126.345427 -4.640550 65.660658 -73.890496 24.796911 5.667683 98.276197 -2.535316 -2.911080 -2.425806 12.839320 2.476519 11.488648 -0.556651 2.631098 0.000000 0.000000 0.000000 -125.148819 -9.320911 59.913928 -95.644307 7.642636 15.586649 66.281330 -2.132208 2.662223 -2.431944 5.854181 4.218592 -16.531756 0.584069 -0.518047 0.000000 0.000000 0.000000 -134.834819 -9.379969 76.557295 10.655961 5.214339 3.580598 22.927167 5.935276 2.449699 -0.253505 0.480237 2.438122 0.000000 0.000000 0.000000 19.346895 6.015565 1.581453 51.713309 -3.978248 -12.542713 -19.957727 -11.545271 13.009163 0.000000 0.000000 0.000000 22.444563 6.717789 2.451025 2.108212 2.834181 2.889820 7.932037 -6.590151 -1.287664 -23.175030 -22.710224 -9.566796 173.276517 -47.465980 176.304968 0.000000 0.000000 0.000000 18.126965 5.899194 3.942194 -2.386838 -5.035997 -3.981488 10.194553 -0.781736 5.306993 -61.181413 -2.323425 45.117597 -154.031790 74.010967 149.424950 0.000000 0.000000 0.000000 
207.815643 33.208477 -38.902851 0.000000 0.000000 0.000000 -130.984805 5.561005 77.154876 -77.027561 42.028637 11.534874 94.233367 6.416425 -4.039998 -6.786673 18.582079 8.603616 6.645862 -0.729049 2.565878 0.000000 0.000000 0.000000 -126.892156 1.372468 67.091336 -92.656973 6.043833 13.882270 68.553734 -4.837532 5.307665 -8.109519 4.081597 4.885088 -14.272164 1.121572 -1.807500 0.000000 0.000000 0.000000 -137.779464 -0.724366 86.776481 11.295734 3.756185 2.583497 22.210687 6.263112 2.826533 0.300226 -0.954875 2.361099 0.000000 0.000000 0.000000 19.185728 6.456580 2.016470 49.643382 -3.155807 -13.203704 -18.487410 -10.384971 13.966174 0.000000 0.000000 0.000000 22.764884 6.651737 2.751220 1.444484 3.430571 -0.458931 7.348151 -4.312159 -1.225549 -14.269513 -24.072862 -12.213831 170.911509 -54.170599 173.483158 0.000000 0.000000 0.000000 17.930298 6.211177 4.814210 -2.931150 -3.705656 -4.780121 9.175836 3.585135 4.134801 -47.596470 -2.636928 43.420616 -54.018737 82.465553 50.383232 0.000000 0.000000 0.000000 
214.534927 29.009258 -39.186245 0.000000 0.000000 0.000000 -137.521242 14.407437 90.612022 -86.381286 57.262407 20.014218 94.885787 15.083067 -2.959193 -10.489509 21.125164 14.489980 0.883975 -0.763256 2.695038 0.000000 0.000000 0.000000 -130.397833 10.926556 75.387387 -86.707981 5.273575 11.891029 67.461840 -7.888066 7.358302 -12.026547 1.526100 4.272336 -12.265055 1.513290 -2.598541 0.000000 0.000000 0.000000 -142.620921 7.111790 98.205730 11.962245 2.777738 1.154458 21.250047 6.598513 2.909526 0.053122 -1.569579 1.904121 0.000000 0.000000 0.000000 19.581748 6.863768 2.209977 46.405767 -1.564462 -11.886736 -19.564355 -10.699886 15.005033 0.000000 0.000000 0.000000 23.020343 6.747309 2.799784 0.837975 2.507960 -4.074861 6.335837 -2.036721 0.422683 -7.606251 -22.994221 -13.684362 168.252831 -62.233644 169.519572 0.000000 0.000000 0.000000 17.741691 6.475920 5.389388 -3.318245 -1.519177 -4.578974 8.822268 7.295322 2.900942 -37.562622 -0.194668 40.475916 -10.212471 64.225198 7.733406 0.000000 0.000000 0.000000 
221.397873 26.945507 -39.897694 0.000000 0.000000 0.000000 -145.780225 20.799716 104.875956 -100.649763 66.897885 30.685117 99.354691 20.569562 -0.538166 -12.492855 19.981029 16.817597 -5.321184 -0.575831 3.156288 0.000000 0.000000 0.000000 -136.408590 18.668230 85.381695 -79.134988 6.038486 10.192655 64.271131 -10.177913 7.845600 -13.288132 -0.146296 3.172119 -11.276243 2.025730 -2.654979 0.000000 0.000000 0.000000 -149.260575 13.271399 109.737132 12.452553 2.520721 -0.315323 20.137037 6.969881 2.829595 -0.530394 -1.905471 1.928968 0.000000 0.000000 0.000000 20.394224 7.209126 2.126900 41.582745 0.675665 -8.976187 -23.001920 -11.666044 15.967294 0.000000 0.000000 0.000000 22.991895 7.075016 2.644668 0.168109 0.180104 -7.156633 4.109927 -0.151592 1.361962 -2.445582 -20.986157 -14.503488 164.076321 -70.300084 163.527829 0.000000 0.000000 0.000000 17.510525 6.707260 5.626538 -3.509646 0.689921 -3.489317 8.645385 9.162572 1.106167 -31.598508 2.128629 36.842372 -3.643254 46.804541 2.339149 0.000000 0.000000 0.000000 
228.533936 27.358299 -40.431438 0.000000 0.000000 0.000000 -154.799353 24.983468 118.459468 -108.408489 72.698642 34.526326 105.431558 23.064746 1.313957 -15.599399 15.941141 17.117588 -10.124769 -0.324802 3.145411 0.000000 0.000000 0.000000 -144.711546 24.636931 97.328871 -72.952240 8.594168 8.931160 60.663377 -10.822319 6.728626 -10.493762 -0.382853 3.321067 -12.913934 2.650052 -2.151006 0.000000 0.000000 0.000000 -157.078723 17.567820 121.133214 12.838431 3.009362 -1.560012 19.163870 7.306692 2.717600 -1.260590 -2.136266 2.210764 0.000000 0.000000 0.000000 21.613013 7.531626 1.872358 35.211032 3.261763 -5.909542 -28.256055 -12.123633 16.685507 0.000000 0.000000 0.000000 22.741899 7.516928 2.467642 -0.562130 -2.747035 -9.248444 2.060216 1.954913 0.585431 2.249166 -19.435235 -14.124543 155.285826 -77.793286 152.685983 0.000000 0.000000 0.000000 17.243438 6.876850 5.683030 -3.556592 2.346474 -2.041966 8.911554 10.248611 -1.412434 -30.904697 2.155261 34.041735 -1.227530 35.174303 0.946394 0.000000 0.000000 0.000000 
235.616714 29.831665 -40.617863 0.000000 0.000000 0.000000 -163.724293 27.108003 130.716830 -92.421311 76.254800 16.347633 110.690558 21.941330 2.753045 -20.979121 10.066801 14.727606 -14.575709 -0.164492 3.100093 0.000000 0.000000 0.000000 -154.618462 28.365084 110.737160 -70.663129 12.036893 7.997241 59.594446 -9.141075 4.483744 -3.434716 1.399690 5.894032 -17.128899 3.358912 -1.484805 0.000000 0.000000 0.000000 -165.333021 19.779113 132.271217 13.034897 4.129069 -2.161388 18.496726 7.635005 2.702804 -1.561497 -2.187073 2.534918 0.000000 0.000000 0.000000 23.117836 7.867049 1.611349 27.955573 6.375460 -4.484462 -34.567266 -10.851419 16.870422 0.000000 0.000000 0.000000 22.695513 7.955938 2.413261 -1.261163 -5.647625 -10.026192 0.714871 4.505403 -1.359317 6.096815 -19.149135 -12.671573 119.659191 -84.272418 115.285506 0.000000 0.000000 0.000000 17.046605 7.017584 5.691909 -3.472892 3.674608 -0.679357 9.504697 10.878731 -3.969380 -35.053586 -0.169445 32.965075 -0.126549 29.358889 0.673848 0.000000 0.000000 0.000000 
242.342361 33.105549 -41.226353 0.000000 0.000000 0.000000 -171.908512 27.367074 141.487259 -53.225438 73.592713 -21.417019 114.590575 17.790372 3.742942 -30.256071 3.101904 11.192546 -19.237250 -0.615399 3.498771 0.000000 0.000000 0.000000 -164.682773 29.964170 124.795520 -72.817391 14.872694 7.432274 62.868667 -5.970320 1.857004 5.541954 5.055338 9.875674 -21.842142 3.921824 -0.934998 0.000000 0.000000 0.000000 -172.819974 19.956004 142.294328 13.071948 5.620285 -1.991500 18.198706 7.927932 2.828494 -1.362431 -2.225367 2.801083 0.000000 0.000000 0.000000 24.742360 8.152042 1.487250 20.672285 10.139216 -5.976241 -40.471695 -6.755196 16.693454 0.000000 0.000000 0.000000 22.890517 8.249050 2.586219 -1.823207 -8.095594 -9.587900 -0.372194 7.740771 -3.747585 7.473595 -20.073788 -10.870739 37.302733 -81.836123 31.865831 0.000000 0.000000 0.000000 17.129230 7.175351 5.763457 -3.194101 4.927567 0.515754 9.393953 10.281090 -5.271305 -42.913508 -4.609945 33.315515 0.225765 27.521262 0.993615 0.000000 0.000000 0.000000 
